<svg xmlns="http://www.w3.org/2000/svg" viewBox="0 0 1180 220" role="img" aria-labelledby="t d"><title id="t">Research architecture</title><desc id="d">Mathematical training connects to statistical learning and structured knowledge, alongside NLP, leading to intelligent information systems.</desc><defs><linearGradient id="g" x1="0" x2="1"><stop offset="0" stop-color="#0f6f87"/><stop offset="1" stop-color="#1c8fa7"/></linearGradient><filter id="s" x="-20%" y="-20%" width="140%" height="140%"><feDropShadow dx="0" dy="10" stdDeviation="10" flood-color="#10263f" flood-opacity=".08"/></filter></defs><rect x="0" y="0" width="1180" height="220" rx="22" fill="#f4f7fb"/><g font-family="Inter,Arial,sans-serif"><g filter="url(#s)"><rect x="38" y="78" width="190" height="64" rx="14" fill="#fff" stroke="#dbe4ee"/><rect x="268" y="38" width="205" height="64" rx="14" fill="#fff" stroke="#dbe4ee"/><rect x="268" y="118" width="205" height="64" rx="14" fill="#fff" stroke="#dbe4ee"/><rect x="508" y="38" width="160" height="64" rx="14" fill="#fff" stroke="#dbe4ee"/><rect x="508" y="118" width="160" height="64" rx="14" fill="#fff" stroke="#dbe4ee"/><rect x="706" y="78" width="200" height="64" rx="14" fill="#fff" stroke="#dbe4ee"/><rect x="944" y="78" width="195" height="64" rx="14" fill="url(#g)" stroke="#0f6f87"/></g><g fill="#10263f" font-weight="800" font-size="15"><text x="62" y="105">Mathematical training</text><text x="292" y="66">Statistical learning</text><text x="292" y="146">Structured knowledge</text><text x="532" y="66">NLP / text</text><text x="532" y="146">Data mining</text><text x="730" y="105">Interpretation + evidence</text></g><text x="977" y="106" fill="#fff" font-weight="800" font-size="15">Intelligent systems</text><g stroke="#8fb5c0" stroke-width="2" fill="none"><path d="M228 110H250"/><path d="M250 110L268 70"/><path d="M250 110L268 150"/><path d="M473 70H508"/><path d="M473 150H508"/><path d="M668 70L706 98"/><path d="M668 150L706 122"/><path d="M906 110H944"/></g><g fill="#0f6f87"><circle cx="250" cy="110" r="4"/><circle cx="690" cy="110" r="4"/></g></g></svg>
